<svg width="64" height="64" viewBox="0 0 64 64" fill="none" xmlns="http://www.w3.org/2000/svg">
  <defs>
    <linearGradient id="heart" x1="32" y1="10" x2="32" y2="52" gradientUnits="userSpaceOnUse">
      <stop offset="0%" stop-color="#F97316"/>
      <stop offset="38%" stop-color="#F97316"/>
      <stop offset="42%" stop-color="#FFFFFF"/>
      <stop offset="58%" stop-color="#FFFFFF"/>
      <stop offset="62%" stop-color="#138808"/>
      <stop offset="100%" stop-color="#138808"/>
    </linearGradient>
    <linearGradient id="pulse" x1="8" y1="32" x2="56" y2="32" gradientUnits="userSpaceOnUse">
      <stop stop-color="#138808"/>
      <stop offset="0.5" stop-color="#1a1a2e"/>
      <stop offset="1" stop-color="#F97316"/>
    </linearGradient>
  </defs>
  <path d="M32 54 C32 54 8 38 8 22 C8 14 14 8 22 8 C26.5 8 30 10.5 32 14 C34 10.5 37.5 8 42 8 C50 8 56 14 56 22 C56 38 32 54 32 54Z" fill="url(#heart)"/>
  <path d="M32 54 C32 54 8 38 8 22 C8 14 14 8 22 8 C26.5 8 30 10.5 32 14 C34 10.5 37.5 8 42 8 C50 8 56 14 56 22 C56 38 32 54 32 54Z" stroke="#c2410c" stroke-width="0.8" stroke-opacity="0.3" fill="none"/>
  <path d="M6 30 L18 30 L22 30 L25 22 L29 38 L33 18 L37 36 L40 30 L44 30 L58 30" stroke="url(#pulse)" stroke-width="2.5" stroke-linecap="round" stroke-linejoin="round" fill="none"/>
  <rect x="28.5" y="36" width="7" height="11" rx="3.5" fill="#1a1a2e"/>
  <line x1="30" y1="39" x2="34" y2="39" stroke="#fff" stroke-width="0.6" stroke-opacity="0.5"/>
  <line x1="30" y1="41" x2="34" y2="41" stroke="#fff" stroke-width="0.6" stroke-opacity="0.5"/>
  <line x1="30" y1="43" x2="34" y2="43" stroke="#fff" stroke-width="0.6" stroke-opacity="0.5"/>
  <path d="M26 44 C26 48 29 50 32 50 C35 50 38 48 38 44" stroke="#1a1a2e" stroke-width="1.8" stroke-linecap="round" fill="none"/>
  <line x1="32" y1="50" x2="32" y2="53" stroke="#1a1a2e" stroke-width="1.8" stroke-linecap="round"/>
</svg>
